<svg xmlns="http://www.w3.org/2000/svg" width="256" height="256" viewBox="0 0 256 256"><g stroke="#321E3D" stroke-width="8" stroke-linecap="round" stroke-linejoin="round"><path d="M 37 61 Q 127 5 222 63 L 215 165 Q 169 224 125 239 Q 77 226 36 165 Z" fill="#769CB4" /><path d="M 132 26 L 218 67 L 210 162 Q 173 211 132 231 Z" fill="#52758F" stroke="none"/><path d="M 56 76 Q 130 40 200 78" fill="none" stroke="#FFF0CE" stroke-width="10"/><ellipse cx="99" cy="124" rx="13" ry="16.9" fill="#FFF0CE" stroke-width="5"/><circle cx="93" cy="130" r="7.2" fill="#321E3D" stroke="none" /><circle cx="95.9" cy="126.4" r="2.5" fill="#FFF0CE" stroke="none" /><path d="M 81 100.1 L 117 100.1 L 117 118 L 81 126 Z" fill="#769CB4" stroke="none"/><path d="M 83 125 L 115 117" fill="none" stroke-width="6"/><ellipse cx="154" cy="124" rx="13" ry="16.9" fill="#FFF0CE" stroke-width="5"/><circle cx="148" cy="130" r="7.2" fill="#321E3D" stroke="none" /><circle cx="150.9" cy="126.4" r="2.5" fill="#FFF0CE" stroke="none" /><path d="M 136 100.1 L 172 100.1 L 172 126 L 136 118 Z" fill="#52758F" stroke="none"/><path d="M 138 117 L 170 125" fill="none" stroke-width="6"/><path d="M 84 100 Q 98.0 99.0 112 92" fill="none" stroke-width="6"/><path d="M 141 92 Q 155.0 99.0 169 100" fill="none" stroke-width="6"/><ellipse cx="78" cy="152" rx="17" ry="9" fill="#F08A8A" stroke="none" opacity=".6"/><path d="M 74 147 L 68 157" fill="none" stroke="#AB4564" stroke-width="2.5" opacity=".7"/><path d="M 81 147 L 75 157" fill="none" stroke="#AB4564" stroke-width="2.5" opacity=".7"/><path d="M 88 147 L 82 157" fill="none" stroke="#AB4564" stroke-width="2.5" opacity=".7"/><ellipse cx="178" cy="152" rx="17" ry="9" fill="#F08A8A" stroke="none" opacity=".6"/><path d="M 174 147 L 168 157" fill="none" stroke="#AB4564" stroke-width="2.5" opacity=".7"/><path d="M 181 147 L 175 157" fill="none" stroke="#AB4564" stroke-width="2.5" opacity=".7"/><path d="M 188 147 L 182 157" fill="none" stroke="#AB4564" stroke-width="2.5" opacity=".7"/><path d="M 112.0 175 Q 115.75 167.2 119.5 172.6 Q 123.25 176.8 127.0 171.4 Q 130.75 167.2 134.5 172.6 Q 138.25 176.8 142.0 171.4" fill="none" stroke-width="6"/></g></svg>