<svg xmlns="http://www.w3.org/2000/svg" width="256" height="256" viewBox="0 0 256 256"><g stroke="#321E3D" stroke-width="8" stroke-linecap="round" stroke-linejoin="round"><path d="M 37 88 L 72 42 L 145 28 L 207 59 L 229 126 L 203 192 L 139 222 L 64 204 L 26 147 Z" fill="#BC7F83" /><path d="M 47 158 Q 111 220 213 150 L 202 191 L 139 215 L 64 196 Z" fill="#945768" stroke="none"/><circle cx="69" cy="99" r="18" fill="#945768" /><circle cx="190" cy="76" r="12" fill="#945768" /><ellipse cx="113" cy="118" rx="13" ry="16.9" fill="#FFF0CE" stroke-width="5"/><circle cx="113" cy="124" r="7.2" fill="#321E3D" stroke="none" /><circle cx="115.9" cy="120.4" r="2.5" fill="#FFF0CE" stroke="none" /><path d="M 95 94.1 L 131 94.1 L 131 110 L 95 120 Z" fill="#BC7F83" stroke="none"/><path d="M 97 119 L 129 109" fill="none" stroke-width="6"/><ellipse cx="159" cy="114" rx="13" ry="16.9" fill="#FFF0CE" stroke-width="5"/><circle cx="159" cy="120" r="7.2" fill="#321E3D" stroke="none" /><circle cx="161.9" cy="116.4" r="2.5" fill="#FFF0CE" stroke="none" /><path d="M 141 90.1 L 177 90.1 L 177 116 L 141 106 Z" fill="#BC7F83" stroke="none"/><path d="M 143 105 L 175 115" fill="none" stroke-width="6"/><path d="M 98 90 Q 110.0 89.0 122 84" fill="none" stroke-width="6"/><path d="M 150 80 Q 162.0 85.0 174 86" fill="none" stroke-width="6"/><path d="M 119.0 166.0 Q 136 148 153.0 166.0" fill="none" stroke-width="7"/></g></svg>