<svg xmlns="http://www.w3.org/2000/svg" width="256" height="256" viewBox="0 0 256 256"><g stroke="#321E3D" stroke-width="8" stroke-linecap="round" stroke-linejoin="round"><ellipse cx="113" cy="114" rx="15" ry="19.5" fill="#FFF0CE" stroke-width="5"/><circle cx="113" cy="114" r="3.3" fill="#321E3D" stroke="none" /><circle cx="116.3" cy="109.8" r="2.9" fill="#FFF0CE" stroke="none" /><ellipse cx="159" cy="110" rx="15" ry="19.5" fill="#FFF0CE" stroke-width="5"/><circle cx="159" cy="110" r="3.3" fill="#321E3D" stroke="none" /><circle cx="162.3" cy="105.8" r="2.9" fill="#FFF0CE" stroke="none" /><path d="M 96 84 Q 109.0 83.0 122 76" fill="none" stroke-width="6"/><path d="M 150 74 Q 163.0 81.0 176 82" fill="none" stroke-width="6"/><path d="M 113.0 184.0 Q 136 140.0 159.0 184.0 Q 136 192.0 113.0 184.0 Z" fill="#321E3D" /><ellipse cx="136" cy="178.0" rx="8.28" ry="5.6000000000000005" fill="#AB4564" stroke="none"/><path d="M 94 132 C 102.1 142.8 102.1 150.0 94 150.0 C 85.9 150.0 85.9 142.8 94 132 Z" fill="#9AD7E8" stroke-width="4"/><path d="M 118 38 L 122 54" fill="none" stroke-width="5"/><path d="M 154 34 L 152 50" fill="none" stroke-width="5"/></g></svg>